Coordinates
version=1
nRows=14
nColumns=28
inDegrees=yes

Units are S.I. units (second, meters, Newtons, ...)
If the header above contains a line with 'inDegrees', this indicates whether rotational values are in degrees (yes) or radians (no).

endheader
time	pelvis_tilt	pelvis_list	pelvis_rotation	pelvis_tx	pelvis_ty	pelvis_tz	hip_flexion_r	hip_adduction_r	hip_rotation_r	knee_angle_r	knee_rotation_r	knee_adduction_r	ankle_angle_r	subtalar_angle_r	mtp_angle_r	hip_flexion_l	hip_adduction_l	hip_rotation_l	knee_angle_l	knee_rotation_l	knee_adduction_l	ankle_angle_l	subtalar_angle_l	mtp_angle_l	lumbar_extension	lumbar_bending	lumbar_rotation
      0.00000000	     -6.74226345	     10.51489329	    -98.28336406	     -0.21155313	      0.94263836	     -0.92815773	      1.45923695	      6.30833319	     14.75555015	    -13.21612696	    -17.06167665	      7.24612600	     16.57503285	     -3.21129329	      0.12789122	     38.13634490	    -10.90844428	     -3.17580065	     -1.46526463	     21.15261531	      0.62293551	     13.24423743	      8.58305658	     -0.14624735	      0.00000000	      0.00000000	      0.00000000
      0.01000000	     -6.75117017	     10.66390402	    -98.82599784	     -0.21209444	      0.94091729	     -0.91584677	      1.12725099	      6.15889857	     14.78681598	    -13.84010419	    -16.77095545	      7.39444463	     16.89355041	     -2.73981867	      0.30397700	     38.25370610	    -11.05946255	     -2.80680530	     -0.45542713	     22.91546270	      1.16586412	     13.35269887	      9.90323673	      0.11911826	      0.00000000	      0.00000000	      0.00000000
      0.02000000	     -6.93785134	     10.72073960	    -99.25264136	     -0.21279009	      0.93939817	     -0.90366376	      0.77137621	      6.24599708	     14.44680171	    -14.58019017	    -16.28925969	      7.37480942	     16.95881013	     -2.08719585	      0.41534761	     38.63056877	    -11.44808307	     -1.71166682	     -0.78490430	     24.36230969	      1.25547196	     13.82449399	     10.27431125	      0.31083701	      0.00000000	      0.00000000	      0.00000000
      0.03000000	     -7.31250128	     10.79782726	    -99.54094141	     -0.21309213	      0.93760976	     -0.89105472	      0.27086617	      6.52547573	     14.39140599	    -15.06040355	    -15.61091015	      7.22403899	     16.79010232	     -1.65777801	      0.45086560	     39.40474260	    -12.06199316	     -0.72489761	     -2.31883360	     25.31247944	      1.03950747	     14.82398844	     11.27718435	      0.87087345	      0.00000000	      0.00000000	      0.00000000
      0.04000000	     -7.68203921	     10.59370864	    -99.77471922	     -0.21284820	      0.93587669	     -0.87836285	     -0.35363488	      6.72792648	     14.11614828	    -15.91881483	    -15.07978918	      7.12029023	     16.74097430	     -1.23536197	      0.45199030	     39.99604436	    -12.46880845	      0.64045221	     -4.43920798	     25.50508487	      0.81515419	     15.51181208	     10.58381402	      1.38917391	      0.00000000	      0.00000000	      0.00000000
      0.05000000	     -7.97233583	     10.82575312	   -100.38682254	     -0.21336653	      0.93412164	     -0.86557335	     -0.53051789	      6.90105640	     14.68987463	    -16.69484371	    -14.64560844	      7.21303075	     16.44631199	     -1.52489426	      0.46404372	     41.12368733	    -13.35813975	      1.26348928	     -7.51350794	     24.86218262	     -0.05342615	     16.04685536	      9.46604078	      1.87135090	      0.00000000	      0.00000000	      0.00000000
      0.06000000	     -8.37118738	     10.84969136	   -100.73848166	     -0.21336304	      0.93233121	     -0.85255743	     -0.89085142	      7.19967972	     14.91204503	    -17.59746535	    -14.12846773	      7.13856439	     16.18292201	     -1.67824954	      0.28764269	     42.10453935	    -14.15879529	      1.83705916	    -10.89456955	     23.72690666	     -1.00613970	     16.75096368	      8.41602593	      2.10388189	      0.00000000	      0.00000000	      0.00000000
      0.07000000	     -8.77872648	     10.90916489	   -101.08656373	     -0.21335023	      0.93056387	     -0.83914934	     -1.21950508	      7.52071786	     15.06525037	    -18.47792173	    -13.49931829	      7.01176828	     15.62734392	     -2.06308661	      0.13855535	     42.86701988	    -15.00705890	      2.52579228	    -14.09762592	     22.03934975	     -2.16562361	     17.08062537	      6.32631746	      2.08861723	      0.00000000	      0.00000000	      0.00000000
      0.08000000	     -8.99978681	     10.86786102	   -101.54166851	     -0.21326173	      0.92925676	     -0.82513626	     -1.63400427	      7.54340194	     15.11301311	    -19.32829412	    -12.71996034	      6.97969512	     14.92157218	     -2.45203016	      0.02164034	     43.26641754	    -15.73721471	      2.59909455	    -16.88850674	     20.64202500	     -3.21421408	     17.44781297	      5.44152404	      2.00860984	      0.00000000	      0.00000000	      0.00000000
      0.09000000	     -8.88426595	     10.87764994	   -102.00681640	     -0.21291748	      0.92825773	     -0.81075165	     -1.83075138	      7.21560564	     15.10435968	    -20.33261604	    -11.96316055	      6.95253544	     14.05826084	     -3.01024231	     -0.18337596	     43.54058396	    -16.00765242	      1.92219853	    -19.12293319	     19.50055205	     -3.74207159	     17.68601881	      5.15903954	      1.94039309	      0.00000000	      0.00000000	      0.00000000
      0.10000000	     -8.39700091	     10.83595238	   -102.46881990	     -0.21201784	      0.92754926	     -0.79595734	     -1.83998180	      6.37619699	     14.77496590	    -21.63445832	    -11.45768916	      7.04125809	     13.28542615	     -2.77945767	     -0.22308320	     43.41615153	    -15.73298206	      0.65022738	    -20.34092681	     18.13060385	     -3.90345593	     17.49228238	      3.91683424	      2.36767476	      0.00000000	      0.00000000	      0.00000000
      0.11000000	     -7.65809933	     10.83305293	   -102.98877030	     -0.21129512	      0.92728110	     -0.78116548	     -1.64246891	      5.37562570	     14.55570549	    -22.99629241	    -10.59197553	      7.07949329	     12.05280733	     -3.40299578	     -0.16575369	     43.04541403	    -15.16065666	     -1.32313195	    -20.71603170	     16.16120740	     -3.62059935	     16.16421618	      1.74368623	      2.99034572	      0.00000000	      0.00000000	      0.00000000
      0.12000000	     -6.65919936	     10.53079370	   -103.49327385	     -0.21018300	      0.92764117	     -0.76686235	     -1.37992783	      3.98676643	     14.32946143	    -24.77893665	     -9.81819983	      7.35544760	     10.93118560	     -4.12685278	     -0.19831535	     42.25546762	    -14.07915307	     -4.03323832	    -20.62353940	     13.66798401	     -2.63241266	     13.78469418	     -0.77513260	      3.81861111	      0.00000000	      0.00000000	      0.00000000
      0.13000000	     -5.44502234	     10.43968128	   -103.83708850	     -0.20873677	      0.92779664	     -0.75271758	     -0.64620361	      2.38979585	     14.16943851	    -26.78855393	     -8.77042791	      7.82419111	      9.24754072	     -5.72487060	     -0.34070680	     41.69503124	    -12.71520383	     -6.83160303	    -20.47256761	     11.04247345	     -1.48939640	     11.45483890	     -3.12386207	      4.40373856	      0.00000000	      0.00000000	      0.00000000
